# xmcd CD database file
#
# Track frame offsets:
#	150
#	24092
#	44975
#	69845
#	99064
#	121589
#	150762
#	172467
#	198300
#	219944
#	252891
#
# Disc length: 3675 seconds
#
# Revision: 1
# Processed by: cddbd v1.5.2PL0 Copyright (c) Steve Scherf et al.
# Submitted via: CDex 1.81
#
DISCID=830e590b
DTITLE=Tropical Jazz Big Band - Let's Groove
DYEAR=2007
DGENRE=Jazz
TTITLE0=Hip To Be Square
TTITLE1=Somebody I Know
TTITLE2=C'est La Vie
TTITLE3=Can't Give You Anything (But My Love)
TTITLE4=Fly Me To The Moon
TTITLE5=Let's Groove
TTITLE6=Enamoradora
TTITLE7=Elegant People
TTITLE8=Descarga Tropical
TTITLE9=Pick Up The Pices
TTITLE10=Cervesa
EXTD=YEAR: 2007
EXTT0=
EXTT1=
EXTT2=
EXTT3=
EXTT4=
EXTT5=
EXTT6=
EXTT7=
EXTT8=
EXTT9=
EXTT10=
PLAYORDER=
